<?xml version="1.0" encoding="UTF-8"?>
<?xml-stylesheet type="text/css" href="styles.css"?>
<svg xmlns="http://www.w3.org/2000/svg" viewBox="0 0 190.85 100.71">
  <defs>
    <style>
      .cls-1 {
        fill: #ffa34e;
        mix-blend-mode: screen;
        opacity: .42;
      }

      .cls-2 {
        fill: none;
        isolation: isolate;
      }

      .cls-3 {
        fill: #ffdd57;
      }

      .cls-4 {
        fill: #ff5725;
      }

      .cls-5 {
        fill: #ff4d25;
      }

      .cls-6 {
        fill: #fffd73;
      }

      .cls-7 {
        fill: #fea900;
      }

      .cls-8 {
        fill: #ff862e;
      }

      .cls-9 {
        fill: #8c2c1c;
      }

      .cls-10 {
        fill: #ba381b;
      }

      .cls-11 {
        fill: #ad2f1a;
      }

      .cls-12 {
        fill: #ce2409;
      }

      .cls-13 {
        fill: #d23c2b;
      }

      .cls-14 {
        fill: #d34220;
      }

      .cls-15 {
        fill: #db7301;
      }

      .cls-16 {
        fill: #53688a;
      }

      .cls-17 {
        fill: #273141;
      }

      .cls-18 {
        fill: #58094c;
      }

      .cls-19 {
        fill: #5f243b;
      }

      .cls-20 {
        fill: #842653;
      }
    </style>
  </defs>
  <g class="cls-2">
    <g id="Layer_1" data-name="Layer 1">
      <path class="cls-15" d="m67.49,6.23c8.53.9,115.23,32.68,123.36,37.7-.05-.66-.18-1.49-.18-1.49-.55-.74-1.95-1.77-3.1-2.54C184.81,38.09,72.9.96,64.07.02c-6.69-.71-21.58,16.43-17.08,24.98,2.31-6.95,15.07-19.35,20.49-18.77Z"/>
      <path class="cls-17" d="m130.45,86.32c.51,3.16-1.64,6.12-4.8,6.63-3.16.5-6.13-1.64-6.63-4.8-.5-3.16,1.64-6.12,4.8-6.63,3.16-.51,6.12,1.64,6.63,4.8Z"/>
      <path class="cls-18" d="m166.4,39.55l-4.65,31.31,1.73.62,5.04-32.27s-1.82-1.68-2.12.34Z"/>
      <path class="cls-15" d="m140.1,62.17s32.68,5.52,34.38,8.69c1.7,3.17-11.61,8.4-17.21,8.57-4.34.13-61.3-7.39-61.3-7.39l44.13-9.88Z"/>
      <path class="cls-9" d="m139.44,62.84s32.68,5.52,34.38,8.69c1.7,3.17-11.61,8.4-17.21,8.57-4.34.13-61.3-7.39-61.3-7.39l44.13-9.88Z"/>
      <polygon class="cls-18" points="124.43 88.93 120.04 73.09 122.15 72.51 125.01 82.86 133.76 65.21 135.72 66.17 124.43 88.93"/>
      <path class="cls-7" d="m16.14,76.24c-.39-2.41-11.94-20.85-8.85-22.79,3.09-1.94,16.69,5.8,21.26,8.38,4.58,2.58,5.29,5.72,5.29,5.72l-17.71,8.68Z"/>
      <path class="cls-19" d="m84.92,44.26s9.75,1.2,14.91,0,4.48-.77,6.83-1.64c2.35-.86,11.25-3.1,11.25-3.1l-2.28,11.13-23.23,1.74-7-2.7-.49-5.42Z"/>
      <path class="cls-10" d="m48.65,26.39s59.26,14.89,63.6,14.8c4.34-.1,59.85,12.11,67.9,11.93,8.05-.18,11.46-7.43,10.56-10.59-.91-3.17-115.5-37.2-124.33-38.13-7.32-.78-25.87,17.82-17.72,22Z"/>
      <path class="cls-11" d="m111.78,41.15c4.34-.1,59.84,12.05,67.9,12.05,2.75,0,4.71-.72,6.29-1.74-15.59-8.6-44.28-22.85-66.4-25.27-19.44-2.13-39.38,1.55-52.13,4.86,17.72,4.35,41.64,10.16,44.33,10.1Z"/>
      <path class="cls-7" d="m16.21,73.61s-6.54,5.88,24.55,9.02,112.4-15.4,112.4-15.4l-2.96-36.31-31.25,5.17s-8.96,11.97-21.76,12.66c-12.8.69-12.27-4.49-12.27-4.49,0,0-63.41,11.51-68.71,29.35Z"/>
      <path class="cls-4" d="m153.17,67.23l-1.66-20.36c-4.14,3.03-10.88,6.86-21.44,10.3-18.78,6.12-88.88,8.02-107.4,8.43-3.29,2.5-5.61,5.17-6.45,8.01,0,0-6.54,5.88,24.55,9.02s112.4-15.4,112.4-15.4Z"/>
      <path class="cls-14" d="m39.08,78.38c-13.2-1.31-19.76-3.08-22.92-4.72-.58.62-4.67,6,24.61,8.96,31.09,3.14,112.4-15.4,112.4-15.4l-.33-4c-10,2.19-84.16,18.08-113.76,15.15Z"/>
      <polygon class="cls-18" points="124.29 86.54 109.04 88.47 109.24 90.64 124.49 88.36 124.29 86.54"/>
      <path class="cls-3" d="m160.73,48.31c.84,10.02-2.5,18.48-7.47,18.9-4.97.42-9.68-7.37-10.52-17.39-.84-10.02,2.5-18.48,7.47-18.9,4.97-.42,9.68,7.37,10.52,17.39Z"/>
      <path class="cls-20" d="m159.24,48.62c.62,7.41-1.65,13.64-5.07,13.93-3.43.29-6.71-5.48-7.33-12.89-.62-7.41,1.65-13.64,5.07-13.93,3.43-.29,6.71,5.48,7.33,12.89Z"/>
      <path class="cls-18" d="m87.2,22.84l-7.05,33.08,2.13.58,7.41-33.33c.27-1.06-2.09-1.75-2.49-.33Z"/>
      <path class="cls-18" d="m71.21,18.3l-7.14,33.37,2.13.58,7.41-33.33c.28-1.8-2.19-1.76-2.41-.63Z"/>
      <path class="cls-13" d="m33.85,67.56s-17.76-1.87-30.28-.51c-12.52,1.37,12.1,8.17,12.1,8.17l18.92-3.07-.74-4.6Z"/>
      <path class="cls-8" d="m3.57,67.05c-3.65.4-4.12,1.22-3.09,2.21,1.43-.34,3.99-.51,8.89-.2,12.61.79,25.22,3.1,25.22,3.1l-.74-4.6s-17.76-1.87-30.28-.51Z"/>
      <path class="cls-15" d="m45.44,60.35s15.85,1.54,24.91,2.39c7.7.72,49.1-.21,49.1-.21l.2-3.05s-45.37-14.66-54.88-15.4c-6.12-.47-15.08,3.35-18.87,8.19-2.1,2.68-1.71,6.56-.47,8.09Z"/>
      <path class="cls-9" d="m45.44,60.35s16.51,5.85,25.56,6.7c9.06.84,48.44-4.52,48.44-4.52,0,0-45.16-12.65-54.67-13.38-9.51-.73-22.82,6.92-19.33,11.2Z"/>
      <path class="cls-1" d="m138.03,44.33c.95,3.24-2.8,7.2-8.38,8.84-5.58,1.64-10.88.34-11.83-2.9-.95-3.24,2.8-7.2,8.38-8.84,5.58-1.64,10.88-.34,11.83,2.9Z"/>
      <path class="cls-18" d="m166.4,52.75l2.12-13.55c0-.88-1.66-1.24-1.99-.39l-1.99,13.29c.64-.05,1.35.19,1.87.66Z"/>
      <path class="cls-1" d="m40.58,58.21s-12.64,3.36-13.63,6.04c-.99,2.68,13.05.37,14.94-1.51,1.88-1.88-1.31-4.53-1.31-4.53Z"/>
      <path class="cls-18" d="m116.24,72.41c-.64,1.27-1.34,2.67-2.12,4.25-2.18,4.43-4.31,8.89-5.6,11.61l-6.68-13.44c-.34-.28-2.2.18-2.14.63,5.08,10.22,7.67,15.25,7.57,15.46l.99.46c4.74-8.96,8.05-15.06,10.35-19.2,0-.29-2.18-.11-2.37.23Z"/>
      <path class="cls-17" d="m115.69,91.67c.68,4.25-2.22,8.26-6.47,8.94-4.26.68-8.26-2.22-8.94-6.47-.68-4.25,2.22-8.26,6.47-8.94,4.25-.68,8.26,2.22,8.94,6.47Z"/>
      <path class="cls-16" d="m112.26,92.22c.38,2.36-1.23,4.57-3.59,4.95-2.36.38-4.57-1.23-4.95-3.59-.38-2.36,1.23-4.58,3.59-4.95,2.36-.38,4.57,1.23,4.95,3.59Z"/>
      <path class="cls-18" d="m127.23,87.29c0,1.51-1.32,2.73-2.94,2.73s-2.94-1.22-2.94-2.73,1.32-2.73,2.94-2.73,2.94,1.22,2.94,2.73Z"/>
      <g>
        <path class="cls-5" d="m156.94,49.36c-.23,1.86-1.47,3.24-2.78,3.08-1.31-.16-2.19-1.8-1.96-3.66.23-1.86,1.47-3.24,2.78-3.08,1.31.16,2.19,1.8,1.96,3.66Z"/>
        <path class="cls-12" d="m154.37,52.67c-.08,0-.16,0-.23-.01-.71-.09-1.32-.55-1.72-1.31-.39-.73-.54-1.65-.43-2.6.11-.95.48-1.8,1.04-2.42.57-.64,1.28-.94,1.99-.85.7.09,1.32.55,1.72,1.31.39.73.54,1.65.43,2.6h0c-.11.95-.48,1.8-1.04,2.42-.51.57-1.12.87-1.75.87Zm.41-6.77c-.5,0-1,.25-1.43.72-.5.55-.83,1.32-.93,2.18-.1.86.03,1.69.38,2.34.34.63.83,1.01,1.39,1.08.56.07,1.13-.19,1.61-.71.5-.55.83-1.32.93-2.18h0c.1-.86-.03-1.69-.38-2.34-.34-.63-.83-1.01-1.39-1.08-.06,0-.12-.01-.18-.01Z"/>
      </g>
    </g>
  </g>
</svg>