<?xml version="1.0" encoding="UTF-8"?>
<?xml-stylesheet type="text/css" href="styles.css"?>
<svg xmlns="http://www.w3.org/2000/svg" viewBox="0 0 698.82 402.34">
  <defs>
    <style>
      .cls-1 {
        opacity: .39;
      }

      .cls-1, .cls-2 {
        mix-blend-mode: screen;
      }

      .cls-1, .cls-3, .cls-4 {
        fill: #99d4d3;
      }

      .cls-2 {
        opacity: .56;
      }

      .cls-2, .cls-5 {
        fill: #6d7b9e;
      }

      .cls-6 {
        fill: none;
        isolation: isolate;
      }

      .cls-7 {
        fill: #691e67;
      }

      

      .cls-9 {
        fill: #9b1648;
      }

      .cls-10 {
        fill: #84ab99;
      }

      .cls-11 {
        fill: #9cc9b5;
      }

      .cls-12 {
        fill: #672a40;
      }

      .cls-13 {
        fill: #d93b76;
      }

      .cls-14 {
        fill: #bf2723;
      }

      .cls-15 {
        fill: #ce2409;
      }

      .cls-16 {
        fill: #cc1d60;
      }

      .cls-17 {
        fill: #412b56;
      }

      .cls-18 {
        fill: #1c3d3b;
      }

      .cls-19 {
        fill: #709182;
      }

     
      .cls-21 {
        fill: #552068;
      }

      .cls-22 {
        fill: #5e2d48;
      }

      .cls-4 {
        mix-blend-mode: multiply;
        opacity: .4;
      }
    </style>
  </defs>
  <g class="cls-6">
    <g id="Layer_1" data-name="Layer 1">
      <polygon class="cls-11" points="149.82 308.08 197.47 389.88 240.38 402.44 245.12 350.47 174.6 308.08 149.82 308.08"/>
      <path class="cls-12" d="m528.06,85.33l-40.25-25.31s-27.41-31.8,39.74-37.84c67.15-6.04,124.48,21.64,112.64,30.66-11.84,9.02-37.61,31.88-112.13,32.48Z"/>
      <path class="cls-3" d="m0,172.79c.76,94.1,133.82,169.31,297.2,167.99,163.38-1.32,295.21-78.67,294.45-172.77-.32-39.81-24.32-76.24-64.27-104.92C472.89,23.97,388.72-.74,294.45.02,131.07,1.34-.76,78.69,0,172.79Z"/>
      <path class="cls-3" d="m8.9,171.26c.76,94.1,124.93,170.84,288.31,169.52,163.38-1.32,295.21-78.67,294.45-172.77-.32-39.81-24.32-76.24-64.27-104.92C472.89,23.97,388.72-.74,294.45.02,131.07,1.34,8.14,77.16,8.9,171.26Z"/>
      <path class="cls-15" d="m0,172.79c.6,74.46,133.53,133.75,296.91,132.43,163.38-1.32,295.34-62.75,294.74-137.21-.25-31.5-24.19-60.29-64.1-82.91-54.42-30.86-138.55-50.28-232.82-49.52C131.36,36.9-.6,98.33,0,172.79Z"/>
      <path class="cls-3" d="m0,172.79c.37,45.95,133.12,82.12,296.5,80.8,163.38-1.32,295.52-39.64,295.15-85.58-.16-19.44-24-37.13-63.84-50.97-54.33-18.88-138.4-30.6-232.66-29.83C131.78,88.53-.37,126.85,0,172.79Z"/>
      <path class="cls-14" d="m0,172.79c.13,16.88,132.69,29.49,296.07,28.17,163.38-1.32,295.72-16.07,295.58-32.95-.05-7.14-23.81-13.52-63.57-18.4-54.23-6.66-138.24-10.53-232.5-9.77C132.2,141.16-.13,155.91,0,172.79Z"/>
      <path class="cls-9" d="m0,172.79C-.45,117.23,45.35,67.52,116.56,35.84c17.82,34.54,45.67,106.69,27.16,195.71-6.5,31.26-16.25,55.88-27.58,75.14C45.93,276.09.45,227.67,0,172.79Z"/>
      <path class="cls-22" d="m113.26,231.79c16.59-79.76-4.04-145.96-21.33-183.71,7.82-4.33,16.04-8.42,24.63-12.24,17.82,34.54,45.67,106.69,27.16,195.71-6.5,31.26-16.25,55.88-27.58,75.14-8.37-3.65-16.37-7.55-24.01-11.69,8.56-17.21,15.9-38.06,21.12-63.2Z"/>
      <path class="cls-22" d="m19.53,232.81C7.1,214.2.17,193.98,0,172.79c-.16-19.09,5.23-37.46,15.14-54.67,5.64,17.77,9.08,39.87,9.28,63.84.15,18.4-1.63,35.72-4.89,50.86Z"/>
      <path class="cls-4" d="m287.8,270.26c149.7-1.21,272.88-66.25,291.89-149.51,7.66,14.97,11.84,30.83,11.97,47.26.76,94.1-131.07,171.45-294.45,172.77C133.83,342.1.76,266.89,0,172.79c-.07-7.89.82-15.65,2.56-23.26,36.19,70.77,150.38,121.82,285.23,120.74Z"/>
      <path class="cls-18" d="m525.18,276.79c-157.26,114.13-439.75,72.8-509.15-49.4,35.99,55.6,110.46,86.75,175.54,100.18,108.08,22.04,240.57,10.13,333.62-50.78Z"/>
      <path class="cls-7" d="m675.67,158.23c.23,28.86-41.61,61.5-119.17,84.65-71.69-58.14-43.69-124.92-8.36-162.86,79.23,22.02,127.3,49.08,127.54,78.21Z"/>
      <path class="cls-21" d="m667.8,180.72c-15.46,22.33-53.43,44.89-111.31,62.16-66.13-53.63-47.44-114.62-16.41-153.54-8.45,40.1.52,98.31,127.72,91.38Z"/>
      <path class="cls-17" d="m548.13,80.02c4.79,1.33,9.46,2.68,14.03,4.05-32.65,37.62-55.85,99.61,7.42,154.7-4.25,1.4-8.6,2.77-13.08,4.11-71.69-58.14-43.69-124.92-8.36-162.86Z"/>
      <path class="cls-9" d="m511.47,244.15l-18,12.98c-4.27,3.08-7,7.67-7.78,12.88-1.41,9.37,3.79,22.05,43.39,23.1,63.36,1.67,115.53-27.71,103.88-35.47-10.5-6.99-32.29-23.87-87.74-24.3-12.11-.09-23.93,3.73-33.75,10.81Z"/>
      <path class="cls-12" d="m493.42,257.17l.77-.56c49,22.03,105.7,13.49,140.31,4.42-1.85,10.62-49.2,33.56-105.42,32.08-41.19-1.09-45.54-14.76-43.54-24.2,1.01-4.76,3.93-8.89,7.88-11.74Z"/>
      <path class="cls-16" d="m497.38,136.32s107.24-8.36,119.93,17.76c11.72,24.11-89.45,35.59-105.24,35.45,0,0-16.73,1.55-30.86-3.77-13.92-5.24-28.84-44.08,16.17-49.44Z"/>
      <path class="cls-11" d="m199.91,309.84s-18.49,17.66-31.27,17.66l37.74,16.68h14.56l-21.03-34.34Z"/>
      <path class="cls-10" d="m417.34,308.08l-43.55,93.28-133.41,1.08-40.47-92.6,14.76-.12s2.04,17.51,60.49,26.82c58.45,9.31,121.29-28.29,121.29-28.29l20.88-.17Z"/>
      <path class="cls-19" d="m396.46,308.25s-62.84,37.6-121.29,28.29c-58.45-9.31-60.49-26.82-60.49-26.82l-14.76.12,4.34,9.95c26.18,11.66,102.71,46.99,149.89,81.74l19.65-.16,43.55-93.28-20.88.17Z"/>
      <g>
        <path class="cls-18" d="m259.6,358.4c0,8-6.48,14.48-14.48,14.48s-14.48-6.48-14.48-14.48,6.48-14.48,14.48-14.48,14.48,6.49,14.48,14.48Z"/>
        <path class="cls-5" d="m254.83,358.4c0,5.37-4.35,9.71-9.71,9.71s-9.71-4.35-9.71-9.71,4.35-9.71,9.71-9.71,9.71,4.35,9.71,9.71Z"/>
        <path class="cls-2" d="m235.41,358.4c0,1.6.43,3.08,1.11,4.42,1.18.51,2.47.79,3.84.79,5.37,0,9.71-4.35,9.71-9.71,0-1.6-.42-3.08-1.11-4.42-1.18-.5-2.47-.79-3.84-.79-5.37,0-9.71,4.35-9.71,9.71Z"/>
      </g>
      <g>
        <circle class="cls-18" cx="294.14" cy="358.4" r="14.48"/>
        <path class="cls-5" d="m303.86,358.4c0,5.37-4.35,9.71-9.71,9.71s-9.71-4.35-9.71-9.71,4.35-9.71,9.71-9.71,9.71,4.35,9.71,9.71Z"/>
        <path class="cls-2" d="m284.43,358.4c0,1.6.42,3.08,1.1,4.42,1.18.51,2.47.79,3.84.79,5.37,0,9.71-4.35,9.71-9.71,0-1.6-.42-3.08-1.11-4.42-1.18-.5-2.47-.79-3.84-.79-5.36,0-9.71,4.35-9.71,9.71Z"/>
      </g>
      <g>
        <circle class="cls-18" cx="343.3" cy="358.4" r="14.48"/>
        <path class="cls-5" d="m353.01,358.4c0,5.37-4.35,9.71-9.71,9.71s-9.71-4.35-9.71-9.71,4.35-9.71,9.71-9.71,9.71,4.35,9.71,9.71Z"/>
        <path class="cls-2" d="m333.59,358.4c0,1.6.42,3.08,1.11,4.42,1.18.51,2.47.79,3.84.79,5.36,0,9.71-4.35,9.71-9.71,0-1.6-.42-3.08-1.1-4.42-1.18-.5-2.47-.79-3.84-.79-5.37,0-9.71,4.35-9.71,9.71Z"/>
      </g>
      <polygon class="cls-18" points="171.05 335.24 199.91 327.01 224.42 383.9 197.47 381.42 171.05 335.24"/>
      <polygon class="cls-5" points="176.55 338.16 198.67 378.44 217.47 378.44 197.47 331.68 176.55 338.16"/>
      <path class="cls-2" d="m199.11,335.51l-1.64-3.84-20.92,6.48,22.12,40.28h1.53c1.32-13.69.07-31.4-1.08-42.93Z"/>
      <path class="cls-13" d="m486.62,165.6c.32,4.63,26.2,6.6,57.8,4.4,31.6-2.2,56.95-7.74,56.63-12.37-.32-4.63-26.2-6.6-57.8-4.4-31.6,2.2-56.95,7.74-56.63,12.37Z"/>
      <path class="cls-1" d="m165.71,80.46c.33,40.56,62.14,72.94,138.06,72.33,75.92-.61,137.2-33.99,136.88-74.55-.33-40.56-62.14-72.94-138.06-72.32-75.92.61-137.2,33.99-136.88,74.54Z"/>
      <polygon class="cls-18" points="417.34 308.08 373.79 401.36 240.38 402.44 368.92 397.31 417.34 308.08"/>
    </g>
  </g>
</svg>