<?xml version="1.0" encoding="UTF-8"?>
<?xml-stylesheet type="text/css" href="styles.css"?>
<svg xmlns="http://www.w3.org/2000/svg" viewBox="0 0 698.82 402.44">
  <defs>
    <style>

      .cls-8 {
        fill: #648687;
      }

      .cls-20 {
        fill: #6e9495;
      }

    </style>
  </defs>

<g class="blimp-propeller">
        <path class="cls-8" d="m680.54,139.1l-4.9,19.03s7.44-.23,15.45-5.02c5.79-3.46,11.29-13.61,4.82-18.88-5.29-4.3-13.73-1.46-15.36,4.87Z"/>
        <path class="cls-8" d="m680.52,181.25l-4.85-19.03s7.45.23,15.43,5.02c5.78,3.46,11.26,13.61,4.77,18.88-5.3,4.3-13.74,1.47-15.35-4.86Z"/>
        <path class="cls-20" d="m667.26,160.62c.04,4.64,3.56,8.38,7.85,8.34,4.3-.04,7.75-3.83,7.72-8.47-.04-4.64-3.55-8.38-7.85-8.34-4.3.04-7.75,3.83-7.72,8.47Z"/>
        <path class="cls-20" d="m653.16,147.18l17.84,8.25s1.11-7.37-2.16-16.09c-2.36-6.32-11.35-13.56-17.7-8.14-5.18,4.42-3.91,13.24,2.02,15.99Z"/>
        <path class="cls-20" d="m660.5,181.68l9.21-17.36s-7.29-1.51-16.19,1.27c-6.44,2.01-14.16,10.6-9.1,17.23,4.13,5.42,13.01,4.63,16.08-1.14Z"/>
      </g>
      </svg>