<?xml version="1.0" encoding="UTF-8"?>
<svg id="Layer_1" data-name="Layer 1" class="cloud draw-clouds fill-clouds" xmlns="http://www.w3.org/2000/svg" viewBox="0 0 231.67 84.1">
  <defs>
  <clipPath id="myClip3">
      <circle cx="100" cy="100" r="40" />
      <circle cx="60" cy="60" r="40" />
    </clipPath>
    <style>
      .cls-1 {
        fill: #f2f7f8;
      }

      .cls-2 {
        fill: #fff;
      }

      .cls-3 {
        fill: #ceeaf0;
      }
    </style>
  </defs>
  <g>
    <path class="cls-1" d="m198.46,58.45c-6.82,4.89-14.09-.35-20.58,4.47-2.68,1.99-2.98,4.05-4.61,6.66-8.4,13.47-37.06,17.85-57.16,9.38-5.7-2.4-8.76-7.42-14.77-6.9-5.4.48-7.06,2.82-14.66,4.54-5.98,1.36-10.65.9-17.14.22-10.94-1.15-14.16-3.45-21.87-4.91-21.74-4.14-31.6,7.34-41.12-.05C2.12,68.43-.21,62.48.12,57.17c.55-8.7,8.16-13.62,9.07-14.19,4.34-2.7,8.76-2.94,10.71-3.03,7.82-.34,10.25,3.3,14.2,1.75,3.85-1.51,3.12-5.6,7.18-13.16,1.46-2.73,8.87-15.82,21.09-18.17,2.56-.49,6.37-1.21,9.88.71,4.62,2.54,5.79,7.38,7.9,6.92,1.28-.28,1.05-2.03,2.99-3.12,1.98-1.11,4.67-.64,6.44.32,3.78,2.06,3.6,6.49,5.23,6.57,2.05.1,2.27-6.88,6.63-12.64C107.61.99,118.38.17,119.19.12c.7-.04,11.59-.55,19.03,7.15,3.83,3.96,5.61,8.91,6.04,10.2,2.12,6.28,1,10.1,3.12,11.04,2.39,1.07,4.52-3.56,11.41-5.65,1.82-.55,6.34-1.92,11.16-.06,5.82,2.25,8.31,7.75,8.51,8.22,1.87,4.32.3,6.67,2.2,8.01,2.53,1.78,5.79-2.17,12.05-1.09,1.1.19,3.7.67,6.14,2.64.44.35,5.06,4.2,4.6,9.7-.4,4.76-4.36,7.7-5.01,8.17Z"/>
    <path class="cls-2" d="m138.89,83.41c-8.07,0-16.04-1.49-22.83-4.35-2.12-.89-3.87-2.14-5.55-3.34-2.79-1.99-5.42-3.87-9.17-3.54-2.81.25-4.65,1.02-6.77,1.92-1.99.84-4.25,1.8-7.88,2.62-6.12,1.39-11,.87-17.17.22-6.65-.7-10.32-1.81-13.87-2.89-2.45-.74-4.77-1.45-8.01-2.03-10.08-1.81-17.23-.25-22.98,1.01-6.47,1.42-8.79,1.45-12.13.76-1.55-.32-3.58-.73-5.67-2.09C2.08,68.61-.19,62.45.01,57.17c.32-8.18,6.41-13.28,8.55-14.66,1.07-.69,7.69-5.89,16.71-4.89,2.46.27,4.43.93,5.73,1.45-.43-2.3-2.33-13.63,4.93-23.24,7.39-9.78,21.77-14.49,32.9-9.24,6.54,3.09,9.92,8.65,11.3,11.31.12-.42.9-2.92,3.5-4.18,3.05-1.48,5.92.07,6.22.24,3.28,1.84,3.51,5.58,3.52,5.81C97.93,8.2,108.12.38,119.18.01c10.41-.35,17.67,6.01,19.04,7.26,9.05,8.24,9.21,19.34,9.21,21.15.83-1.33,3.97-6.01,10.23-8.05,1.54-.5,7.11-2.21,13.18.61.95.44,6.43,3.1,8.89,9.5,1.38,3.6,1.2,6.8.99,8.46,1.12-.69,2.86-1.58,5.14-2.02.68-.13,7.67-1.34,13.06,3.57,1.15,1.05,5.08,4.6,4.64,9.8-.38,4.56-3.97,7.47-5.06,8.25-3.45,2.48-7.04,2.38-10.52,2.28-3.53-.1-6.86-.19-10.06,2.19-1.85,1.37-2.55,2.77-3.36,4.39-.36.71-.73,1.45-1.22,2.24-4,6.41-12.84,11.14-24.27,12.97-3.36.54-6.79.8-10.2.8Zm-36.69-11.49c2.05.07,4.49.8,8.44,3.62,1.68,1.2,3.41,2.44,5.51,3.32,9.62,4.05,21.61,5.34,32.9,3.53,11.36-1.82,20.15-6.51,24.12-12.87.49-.79.86-1.52,1.21-2.22.83-1.64,1.54-3.06,3.43-4.47,3.27-2.43,6.79-2.33,10.2-2.23,3.44.09,6.99.19,10.38-2.24l.06.09-.06-.09c1.07-.77,4.59-3.62,4.97-8.09.45-5.4-4.05-9.19-4.56-9.61-2.47-1.99-5.1-2.44-6.09-2.61-3.17-.54-5.72.28-7.63.89-4.98,1.59-5.73,3.81-7.45,3.25-2.83-.92-1.08-6.96-5.24-11.39-2.87-3.06-6.85-3.54-7.97-3.68-6.09-.74-12.41,2.79-16.25,8.89-4.95-10.54-9.86-13.29-13.49-13.8-8.7-1.21-14.24,9.94-26.06,9.81-5.52-.06-10-2.55-12.88-4.6-.11.51-1.1,4.85-4.91,6.44-.7.29-3.48,1.51-6.13,0-2.16-1.23-2.8-3.46-2.94-3.97-.18,1.09-2.75,15.26-15.89,21.07-10.73,4.74-20.7.47-22.55-.37-5.59-2.53-9.03-6.34-10.72-8.5-1.21,2.09-3.2,4.68-6.28,5.54-3.56,1.01-5.63-1.12-9.61-1.48-5.61-.5-13.31,2.69-15.71,8.86-2.7,6.97,2.42,14.99,7.97,18.4,3.23,1.98,6.2,2.06,11.65,2.15,9.98.15,33.9-2.11,35.1-1.72,0,0,.06.02.13.04.26.08.85.27,1.6.49,1.07.31,2.49.7,4.18,1.08,2.15.49,4.68.92,7.92,1.27,6.15.65,11.02,1.16,17.1-.22,1.48-.34,2.73-.69,3.83-1.06,1.89-.62,2.99-1.14,4.01-1.55,2.62-1.06,5.1-2.06,7.71-1.97Z"/>
  </g>
  <path class="cls-3" d="m110.75,63.9c-7.02.92-13.11-1.63-16.86-3.68-2.94,3.5-7.64,7.93-13.18,7.66-4.88-.24-5.48-3.88-10.73-5.52-8.28-2.58-12.3,4.78-29.18,7.64-6.74,1.14-10.48,1.77-15.04.14-5.78-2.07-7.8-5.97-13.09-6.39-4.17-.33-7.76,1.69-10.13,3.45.98,1.68,2.63,4.08,5.21,6.38,6.41,5.7,13.9,6.57,18.79,7.14,7.89.92,14.09-.39,20.75-1.81,4.98-1.06,9.06-2.35,11.96-3.37,2.18.79,5.31,1.86,9.13,2.93,9.84,2.76,18.46,3.91,30.12,4.73,8.72.62,23.08,1.33,41.56.49,12.5-.57,20.92-1.58,28.86-7.36,3.02-2.2,5.16-4.5,6.53-6.16,2.14.75,6.68,1.98,11.73.4,6.8-2.14,12.64-8.8,11.29-12.15-.45-1.11-1.91-2.43-11.97-2.82-15.82-.61-19.59,2.39-29.93,1.58-12.93-1.01-12.39-6.1-20.96-4.95-11.06,1.48-13.75,10.2-24.83,11.65Z"/>
  <path class="cls-2" d="m220.18,59.48c-1.07-1.12-2.77-2.65-5.16-3.95-1.26-.69-3.46-1.86-6.32-2.21-4.75-.58-8.57,1.44-10.17,2.42-1.17-1.25-8.08-8.4-19.24-8.5-10.22-.09-16.9,5.79-18.33,7.12-1.19-.63-3.54-1.64-6.54-1.44-6.2.42-9.64,5.66-10.06,6.32-.94-.56-2.42-1.33-4.33-1.93-1.94-.61-5.83-1.82-9.94-.35-1.41.51-4.48,1.61-5.19,4.33-.02.09-.58,2.34.68,3.91,2.16,2.7,8.01,1.02,9.43,1.02,13.61.02,94.25,8.6,96.6-2.45.27-1.25-.38-3.18-1.59-4.3-2.73-2.53-8.14-.65-9.84,0Z"/>
  <path class="cls-3" d="m219.4,62.17c-.96-1.02-2.52-2.41-4.76-3.35-3.75-1.58-7.27-1-9.02-.69-16.08,2.84-17.35,5.16-23.28,4.76-8.84-.59-10.97-5.61-21.04-5.82-3.24-.07-6.56.18-10.05,1.46-3.05,1.12-5.31,2.64-6.77,3.79-2.35-.94-8.48-3-14.62-.34-1.22.53-4.41,1.91-4.29,3.23.3,3.17,19.1,1.63,46.72,4.33,0,0,41.38,4.05,55.65-2.5.99-.45,3.73-1.71,3.66-3.25-.05-1.13-1.57-1.9-2.18-2.21-3.77-1.92-8.27-.18-10.03.61Z"/>
</svg>