<?xml version="1.0" encoding="UTF-8"?>
<svg id="Layer_1" data-name="Layer 1" class="cloud draw-clouds fill-clouds" xmlns="http://www.w3.org/2000/svg" viewBox="0 0 183.25 92.24">
  <defs>
    <style>
      .cls-1 {
        fill: #e9f4f6;
      }

      .cls-2 {
        fill: #fff;
      }

      .cls-3 {
        fill: #ceeaf0;
      }
    </style>
  </defs>
  <g>
    <path class="cls-1" d="m175.22,64.47c-6.65,7.13-15.97,5.43-18.27,4.93-3.62,6.91-7.52,10.9-10.15,13.13-15.77,13.45-36.2,7.18-44.71,4.56-4.71-1.44-8.45-3.16-10.86-4.38-1.83,1.41-7.78,5.6-15.64,4.35-5.13-.82-8.8-3.58-10.66-5.23-11.67,7.32-21.86,9.25-28.04,9.8-10.21.92-22.81,2.13-30.8-8.19-.93-1.2-6.88-9.14-6.01-20.11.16-2.08,1.11-10.97,7.06-15.92,4.02-3.34,8.46-3.34,9.51-3.34,1.42,0,3.46,0,5.86,1.09,2.05.93,3.51,2.27,3.82,1.83.3-.43-1.01-1.72-1.52-4.33-.15-.76-.61-3.07.27-4.94,1.44-3.07,5.22-2.98,5.68-2.96,3.16.11,5.06,2.56,5.72,1.71.5-.64-.64-2.02-.61-4.72,0-.43.07-3.27,1.68-5.29,1.6-2.02,4.07-2.48,5.93-1.98,2.52.68,3.33,2.96,4.39,2.43,1.11-.56.52-3.25,1.43-6.99.27-1.12,1.51-6.45,5.05-8.47,4.06-2.33,8.18.38,8.77.79,4.1,2.8,5.14,8.14,7.02,7.63,1.14-.31.94-2.24,2.65-3.44,1.76-1.23,4.15-.71,5.72.35,3.36,2.27,3.19,7.16,4.65,7.24,1.82.11,2.01-7.58,5.89-13.94C94.55,1.1,104.11.2,104.83.14c.62-.05,10.29-.6,16.9,7.88,3.4,4.36,4.98,9.83,5.37,11.25,1.88,6.93.89,11.14,2.77,12.18,2.12,1.18,4.01-3.93,10.13-6.24,1.62-.61,5.63-2.12,9.91-.06,5.17,2.48,7.38,8.55,7.56,9.07,1.66,4.76.27,7.36,1.95,8.83,2.25,1.97,5.14-2.39,10.7-1.2.98.21,3.28.74,5.45,2.91.39.39,4.5,4.63,4.09,10.7-.31,4.57-3,7.46-4.45,9.01Z"/>
    <path class="cls-2" d="m175.64,44.67c-.68-.71-2.74-2.34-5.5-2.93-2.93-.63-5.12.27-6.87.99-1.6.66-2.76,1.13-3.79.23-.83-.72-.88-1.72-.95-3.22-.07-1.44-.16-3.23-.97-5.56-.24-.67-2.45-6.65-7.61-9.13-4.32-2.07-8.28-.58-9.98.06-3.14,1.18-5.2,3.12-6.69,4.54-1.44,1.36-2.39,2.25-3.37,1.71-.99-.55-1.14-2.02-1.4-4.46-.21-2.02-.47-4.54-1.32-7.65-.55-2.02-2.18-7.17-5.39-11.3C115.11-.65,105.24,0,104.83.02c-8.24.62-13.42,7.02-15.84,9.99-2.65,3.25-4.31,6.54-5.31,8.87-.5-.79-2.3-3.46-5.43-4.19-.71-.17-2.68-.59-4.87.62-1.67.92-2.67,2.35-3.12,3.1-.33-1.34-1.46-5.24-4.61-7.75-4.32-3.45-9.06-1.6-10.37-1.08-3.73,1.46-5.98,4.54-6.99,6.2-1.52,2.5-2.19,4.97-2.5,6.51-.78-.29-2.06-.65-3.62-.47-.92.11-3.55.41-5.49,3.1-1.58,2.2-1.82,4.76-1.87,5.74-2.7-.2-6.49-.17-10.9.88-3.03.72-7.1,1.68-10.95,4.54C4.36,42.48,1.27,55.04,1.72,55.39c.26.21,1.51-4.04,5.35-6.49,3.12-1.99,7.59-2.58,10.97-.92.64.31,3.3,1.72,5.23,2.75,1.31.7,1.55.85,2.05,1.03.96.34,3.12,1.08,5.53.33,4.78-1.49,6.87-7.67,7.17-8.61,1.34-.25,5.91-1.32,9.31-6.34,1.9-2.81,2.67-5.72,3-7.46.91,1,2.48,2.49,4.73,3.45,1.04.44,4.22,1.74,7.66.44,5.67-2.14,7.64-9.66,7.83-10.43.43-.51,2.43-2.77,5.44-2.71.69.01,2.84.17,4.61,2.07,2.36,2.52,2.08,6,3.09,6.09.95.08,1.69-2.97,3.22-7.37,1.38-3.96,2.94-7.7,3.74-9.29,4.1-8.2,13.15-9.95,13.93-10.09.91-.16,10.5-1.68,17.07,6.27,1.13,1.37,3.84,5.69,5.34,11.21.84,3.09,1.1,5.59,1.31,7.6.25,2.44.42,4.05,1.51,4.65,1.09.61,2.13-.38,3.57-1.73,1.49-1.4,3.52-3.33,6.63-4.5,1.67-.63,5.6-2.11,9.85-.07,5.09,2.44,7.27,8.34,7.5,9.01.8,2.29.89,4.06.96,5.48.07,1.51.13,2.61,1.03,3.4,1.11.97,2.37.46,3.96-.2,1.74-.71,3.9-1.6,6.78-.98.88.19,3.22.69,5.41,2.88,3.89,3.9,4.02,10.61,4.05,10.6.03-.01.02-6.69-3.93-10.79Z"/>
    <path class="cls-3" d="m177.99,48.89c-2.55-1.91-6.15,4.33-11.91,6.83-8.43,3.65-17.32,5.17-26.48,4.66-7.32-.41-15.17-1.24-22.16-4.11-7.02-2.89-12.99-8.31-20.7-7.78-14.84,1.02-26.51,14.92-40.65,18.94-10.72,3.04-21.59-.98-29.99-9.3-1.17,1.03-2.98,2.42-5.35,3.53-2.88,1.34-7.3,3.39-11.82,1.18-4.35-2.12-6.4-7.01-7.07-8.8-.84,2.43-2.08,6.96-1.74,12.66,0,0,.56,9.53,5.99,16.76,7.79,10.39,20.76,9.1,30.8,8.19,6.18-.56,16.37-2.48,28.04-9.8,1.85,1.64,5.53,4.41,10.66,5.23,7.86,1.25,13.81-2.94,15.64-4.35,2.41,1.22,6.15,2.94,10.86,4.38,8.51,2.61,28.94,8.89,44.71-4.56,2.62-2.24,6.53-6.23,10.15-13.13,2.3.5,11.62,2.19,18.27-4.93,1.4-1.5,4.17-4.42,4.45-9.01.03-.53.27-5.11-1.68-6.57Z"/>
  </g>
  <path class="cls-2" d="m100.26,37.09c6.19-1.99,11.55-.42,13.49.18,4.43,1.37,7.71,3.76,9.7,5.47.11-1.43,1.07-12.05,8.67-18.28,7.72-6.33,16-3.01,17.62-2.36,9.52,3.81,13.25,14.41,13.79,16.04,1.17-.39,6.87-2.14,12.41,1.95,1.49,1.1,7.42,5.92,7.3,13.92-.14,9-7.81,13.58-8.33,13.88-5.85,3.35-13.25,1.45-18.78-4.77-3.46,5.52-6.93,8.86-9.27,10.81-20.63,17.12-47.59,3.22-50.52,1.64-2.17-1.16-3.87-2.27-4.93-2.99-2.26,2-7.92,6.37-15.49,5.94-2.89-.16-11.96-.68-15-8.85-1.83-4.92-.8-10.83,1.41-14.86,3.03-5.53,7.8-6.67,9.1-6.96,6.92-1.51,12.07,3.89,12.81,4.69,1.21-2.5,6.26-12.32,16.03-15.46Z"/>
</svg>