<?xml version="1.0" encoding="UTF-8"?>
<?xml-stylesheet type="text/css" href="styles.css"?>
<svg id="Layer_1" data-name="Layer 1" class="cloud draw-clouds fill-clouds" xmlns="http://www.w3.org/2000/svg" viewBox="0 0 243.96 81.36">
  <defs>
   <linearGradient id="Gradient">
      <stop offset="0" stop-color="black" />
      <stop offset="1" stop-color="white" />
    </linearGradient>
    <mask id="Mask">
      <rect x="0" y="0" width="200" height="200" fill="url(#Gradient)" />
    </mask>
    <style>
      .cls-1 {
        fill: #f2f7f8;
      }

      .cls-2 {
        fill: #fff;
      }

      .cls-3 {
        fill: #ceeaf0;
      }
    </style>
  </defs>
  <g>
    <path class="cls-1" d="m183.27,55.54c-6.3,4.52-13.01-.32-19.01,4.13-2.47,1.84-2.76,3.74-4.26,6.15-7.76,12.44-34.23,16.48-52.79,8.66-5.26-2.22-8.09-6.86-13.64-6.37-4.8.42-6.46,3.71-13.54,4.19-4.26.29-7.48-.64-8.44-.94-1.34-.42-2.28-.85-3.02-1.28-3.18-1.85-3.28-2.41-4.42-2.59-2.83-.45-3.69,4.18-9.17,6.57-1.03.45-4.33,1.84-7.37.49-.42-.19-2.48-1.09-2.73-2.71-.25-1.58,1.36-2.91,1.09-3.19-.3-.31-2.46,1.37-3.48,2.1-4.45,3.16-11.86,5.54-15.28,2.84-1.22-.96-2.22-2.79-2.13-4.53.1-1.93,1.49-2.89,1.11-3.45-.58-.85-3.98,1.11-8.46,2.09-2.89.63-6.64,1.45-9.95.13C2.99,65.94-.06,59.91.11,54.37c.25-8.29,7.69-12.7,8.77-13.34,4.2-2.49,8.46-2.56,9.5-2.56,1.36,0,3.54-.03,6.1.91,2.13.78,3.65,1.9,3.97,1.53.31-.36-1.05-1.44-1.58-3.62-.15-.64-.63-2.57.28-4.14,1.5-2.57,5.42-2.49,5.9-2.48,3.29.09,5.27,2.14,5.95,1.43.52-.54-.67-1.69-.63-3.95,0-.36.08-2.74,1.75-4.43,1.67-1.69,4.23-2.08,6.17-1.66,2.62.57,3.46,2.48,4.56,2.03,1.16-.47.54-2.72,1.49-5.85.28-.94,1.58-5.4,5.25-7.1,4.22-1.95,8.5.32,9.12.66,4.26,2.35,5.35,6.82,7.3,6.39,1.18-.26.97-1.88,2.76-2.88,1.83-1.03,4.31-.59,5.95.3,3.49,1.9,3.32,5.99,4.83,6.07,1.89.09,2.09-6.35,6.12-11.67,5.7-7.53,15.64-8.28,16.4-8.33.64-.04,10.71-.5,17.58,6.6,3.53,3.65,5.18,8.23,5.58,9.42,1.96,5.8.93,9.33,2.88,10.2,2.21.99,4.17-3.29,10.54-5.22,1.68-.51,5.85-1.78,10.31-.05,5.38,2.08,7.67,7.16,7.86,7.59,1.73,3.99.28,6.16,2.03,7.39,2.34,1.65,5.35-2,11.13-1.01,1.02.18,3.41.62,5.67,2.44.4.32,4.68,3.88,4.25,8.96-.37,4.4-4.03,7.11-4.63,7.54Z"/>
    <path class="cls-2" d="m128.26,78.6c-7.45,0-14.81-1.37-21.08-4.02-1.96-.83-3.57-1.98-5.13-3.09-2.58-1.84-5.01-3.57-8.46-3.27-2.12.19-3.65.95-5.27,1.76-2.03,1.01-4.33,2.16-8.27,2.43-3.89.26-6.98-.48-8.48-.95-1.19-.37-2.18-.79-3.04-1.29-1.4-.81-2.22-1.39-2.76-1.77-.71-.5-1.01-.71-1.63-.81-1.35-.21-2.24.78-3.47,2.15-1.27,1.42-2.86,3.19-5.64,4.41-2.86,1.25-5.37,1.42-7.45.49-1.63-.72-2.62-1.71-2.79-2.79-.16-1.03.43-1.95.82-2.55.14-.22.33-.52.3-.58-.19-.2-2.12,1.22-2.75,1.68-.22.16-.42.31-.59.43-4.8,3.42-12.06,5.47-15.4,2.83-1.12-.88-2.27-2.7-2.17-4.61.06-1.07.5-1.85.83-2.42.25-.44.44-.76.3-.97-.29-.42-1.64.04-3.34.64-1.38.48-3.1,1.08-5.01,1.5-2.97.65-6.67,1.46-10.01.13C3.16,66.12-.17,60.28,0,54.37c.24-7.97,7.12-12.42,8.82-13.42,8.97-5.32,18.78-.49,19.54-.1-1.88-2.27-2.42-5.3-1.31-7.75,1.51-3.33,5.8-5,8.56-3.76.88.4,1.47,1.03,1.86,1.55-.23-1.13-.9-5.2,1.55-8.67.55-.79,1.61-2.24,3.56-2.94.15-.05,3.62-1.24,6.35.93,1.07.85,1.61,1.89,1.86,2.48-.88-5.68,2.13-11.18,7.13-13.32,5.19-2.23,11.37-.33,14.25,3.72,1.29,1.81,1.68,3.73,1.81,5.02.16-.66.64-2.21,2.06-3.47,1.76-1.56,4.28-2.09,6.51-1.39,2.69.84,3.87,3.12,4.18,3.72,1.03,1.99.91,3.87.82,4.63.12-1.72.51-4.31,1.82-7.11,3.67-7.86,12.38-12.57,20.69-12.89,1.2-.05,10.95-.3,17.65,6.63,3.34,3.46,5.03,7.77,5.6,9.46.88,2.6,1.15,4.71,1.37,6.4.27,2.04.43,3.28,1.45,3.74,1.02.46,2.01-.29,3.51-1.43,1.56-1.18,3.69-2.81,6.96-3.8,1.76-.53,5.89-1.79,10.37-.05,5.37,2.08,7.67,7.08,7.92,7.65.85,1.95.94,3.45,1.01,4.66.08,1.26.13,2.09.99,2.69,1.07.76,2.28.36,3.94-.19,1.83-.6,4.1-1.36,7.15-.83.93.16,3.4.58,5.72,2.46.48.39,4.72,3.96,4.29,9.05-.35,4.21-3.66,6.9-4.67,7.62-3.19,2.29-6.5,2.19-9.71,2.11-3.26-.09-6.33-.17-9.29,2.02-1.71,1.27-2.36,2.56-3.11,4.05-.33.66-.67,1.34-1.13,2.07-3.69,5.92-11.86,10.29-22.41,11.98-3.11.5-6.27.74-9.42.74Zm-33.89-10.61c.91,0,2.55-.4,7.79,3.34,1.55,1.11,3.15,2.25,5.09,3.07,8.88,3.74,19.96,4.93,30.39,3.26,10.49-1.68,18.61-6.01,22.27-11.88.45-.73.79-1.4,1.12-2.05.76-1.52,1.42-2.83,3.17-4.13,3.02-2.24,6.27-2.15,9.42-2.06,3.18.09,6.46.18,9.59-2.07l.06.08-.06-.08c.99-.71,4.24-3.34,4.59-7.47.42-4.99-3.74-8.49-4.21-8.87-2.28-1.84-4.71-2.26-5.63-2.41-3-.52-5.24.23-7.05.82-1.66.55-2.97.98-4.12.17-.94-.66-.99-1.58-1.07-2.84-.07-1.19-.16-2.67-.99-4.59-.24-.56-2.51-5.49-7.8-7.54-4.42-1.71-8.5-.47-10.24.06-3.23.98-5.35,2.59-6.9,3.77-1.5,1.14-2.58,1.96-3.71,1.45-1.13-.51-1.31-1.85-1.57-3.89-.22-1.68-.49-3.78-1.36-6.37-1.56-4.62-4.38-8.23-5.56-9.38-6.83-6.65-16.8-5.39-17.75-5.25-.81.12-10.22,1.59-14.48,8.45-.83,1.33-2.46,4.47-3.89,7.78-1.59,3.69-2.36,6.23-3.35,6.17-.98-.06-.8-2.59-3.22-5.1-.58-.61-1.82-1.9-3.62-2.28-3.48-.74-6.51,2.46-6.84,2.82-.79-1.02-2.09-2.48-4.02-3.76-1.54-1.01-6.75-4.45-11.67-2.28-3.57,1.58-4.96,5.23-5.36,6.3-1.18,3.12-.79,5.89-.54,7.11-.21-.34-2.03-3.19-5.44-3.46-.8-.06-2.61-.06-4.18,1.08-2.02,1.47-2.47,3.93-2.85,6-.2,1.09-.24,2.02-.25,2.68-.64-.38-1.65-.87-2.97-1.07-.92-.14-3.73-.57-5.5,1.21-1.81,1.82-1.29,4.78-1.21,5.23.54,3.06,2.91,4.63,2.55,5.1-.4.51-3.17-1.53-6.17-2.68-4.71-1.81-10.86-1.79-15.96.8-1.7.87-7.97,4.06-9.12,10.86-.91,5.38,1.6,11.72,6.08,13.7,4.05,1.78,9.62-.08,9.89-.14,1.9-.42,3.61-1.01,4.99-1.49,1.99-.69,3.2-1.11,3.57-.56.21.31,0,.67-.29,1.18-.32.55-.75,1.31-.8,2.33-.1,1.84,1.02,3.6,2.09,4.45,3.27,2.58,10.42.54,15.16-2.84.17-.12.37-.27.59-.43,1.83-1.34,2.75-1.93,3.02-1.66.15.16,0,.41-.28.83-.37.58-.94,1.46-.79,2.41.16,1.01,1.11,1.95,2.67,2.63,2.03.9,4.49.73,7.29-.5,2.74-1.2,4.31-2.95,5.57-4.36,1.23-1.37,2.19-2.45,3.65-2.22.67.11,1,.34,1.72.84.57.4,1.36.95,2.74,1.76.85.49,1.83.91,3,1.28,1.48.46,4.55,1.2,8.4.94,1.62-.11,2.96-.37,4.12-.71,1.74-.51,2.43-1,4.08-1.7,2.54-1.09,4.23-1.81,6.15-1.82Z"/>
  </g>
  <path class="cls-3" d="m51.39,56.97c-5.75,1.85-9.6-4.13-20.5-6.58-8.8-1.97-14.74.04-16.02.51-2.57.93-8.77,3.17-9.72,8.27-.43,2.31.26,4.97,1.88,6.75,3.66,4,11.31,2.22,12.23,1.99,2.8-.69,4.77-1.95,5.41-1.2.66.77-1.16,2.48-1.04,4.96.13,2.68,2.45,4.59,3.56,5.5,5.36,4.41,16.68,4.31,22.78,4.13,16.71-.49,25.47-.85,36.1-5.99,3.35-1.62,5.97-3.27,7.71-4.46,3.96,2.32,8.68,4.56,14.16,6.24,4.47,1.37,21.72,6.66,39.16-.25,7.33-2.91,5.92-4.49,13.05-6.84,9.45-3.11,15.81-1.61,23.14-7.01,2-1.47,3.55-3.08,4.54-5.28.13-.29,2.66-6.21-.56-11-2.69-4-7.64-4.62-8.38-4.7-8.89-.98-12.69,8.35-22.63,8.9-4.44.24-8.18-1.37-10.68-2.8-1.91,2.1-16.87,17.98-37.53,15.48-7.44-.9-13.19-3.89-16.89-6.33-1.95,1.08-4.79,2.45-8.39,3.56-3.42,1.05-7.35,2.26-11.19,1.78-8.13-1.01-13.04-9.21-14.17-11.21-1,1.82-2.88,4.57-6.01,5.58Z"/>
  <path class="cls-2" d="m239.31,53.88c-10.59,8.95-31.23,6.25-45.82-.12-4.46-1.95-7.84-4.01-9.79-5.28,1.7.13,2.88-.07,3.26-.76.96-1.78-3.38-7-8.64-8.96-4.95-1.84-9.58-.39-11.42.31-.4-1.74-1.59-5.76-5.19-9.22-.79-.75-5.72-5.33-12.59-5.06-3.53.14-6.17,1.51-10.07,3.54-2.7,1.4-4.77,2.86-6.15,3.91-2.15-1.43-5.76-3.45-10.63-4.47-2.33-.49-9.96-1.99-18.12,1.75-1.81.83-7.45,3.68-11.54,9.72-3.82,5.64-3.59,10.15-6.23,10.59-2.7.45-3.57-4.18-8.95-6.22-5.44-2.05-10.87.29-11.88.72-6.55,2.82-8.7,8.76-9.4,8.36-.89-.52,1.01-11.24,9.47-15.61.73-.38,7.47-3.72,14.06-.63,1.81.85,3.12,1.94,3.96,2.79-.36-.73-.87-2.03-.74-3.63.26-3.18,2.94-6.02,6.18-6.62,3.03-.56,5.41,1.05,5.95,1.43-.38-.81-.91-2.26-.63-3.95.57-3.51,4.27-6.31,7.91-6.09,2.26.14,3.86,1.4,4.56,2.03,0-1.29.18-3.55,1.49-5.85,2.48-4.35,7.9-6.9,13.06-5.99,5.3.94,8.09,5.13,8.61,5.94.29-.61,1.09-2.06,2.76-2.88,2.56-1.27,5.15-.07,5.95.3,3.6,1.66,4.67,5.43,4.83,6.07.59-2.46,2.08-7.23,6.12-11.67,1.69-1.85,7.24-7.77,16.4-8.33.64-.04,10.71-.5,17.58,6.6,2.83,2.93,4.22,6.2,5.58,9.42,1.7,4.02,2.49,7.61,2.88,10.2,1.06-1.49,3.38-4.31,7.33-6.11.55-.25,9.25-4.05,15.76.51,3.04,2.13,4.43,5.26,5.61,7.91,1.31,2.95,1.81,5.6,2.03,7.39,1.81-.73,5.26-1.82,9.54-1.27,1.93.25,4.7.6,7.27,2.7.26.21,4.67,3.93,4.25,8.96-.32,3.83-3.23,6.36-4.63,7.54Z"/>
  <path class="cls-3" d="m172.37,48.36c4.92-1.65,9.89-.27,11.33.12,5.98,1.66,9.75,5.65,11.12,4.45.56-.49.13-1.33.22-3.12,0,0,.2-3.98,3.07-7.38,3.13-3.7,9.02-4.98,13.84-3.46,5.43,1.71,7.84,6.45,8.6,7.93,4.65,9.11-.92,18.49-1.27,19.06-.63,1.01-2.98,4.62-7.78,7.31-2.15,1.2-5.51,2.62-29.39,1.75-6.96-.25-10.44-.38-13.03-.64-4.34-.42-5.94-.8-9.21-.64-5.19.26-5.77,1.45-9.69,1.59-1.42.05-10.93.39-13.34-5.08-1.58-3.59.43-8.45,3.51-10.93,2.28-1.83,4.82-2.11,6.85-2.31,6.3-.61,7.59,2.36,11.72,1.81,6.09-.82,5.9-7.92,13.46-10.45Z"/>
  <path class="cls-2" d="m149.06,75.41c-3.71,0-10.3-.66-12.28-5.14-1.64-3.72.56-8.61,3.53-11.01,2.34-1.88,4.97-2.14,6.88-2.33,3.43-.33,5.39.4,7.11,1.04,1.46.55,2.73,1.02,4.6.77,3-.4,4.44-2.31,6.1-4.51,1.65-2.18,3.52-4.66,7.34-5.94,3.28-1.1,7.1-1.06,11.36.12,2.9.8,5.24,2.13,7.12,3.2,1.9,1.08,3.27,1.85,3.94,1.26.32-.28.29-.71.24-1.41-.03-.44-.07-.99-.04-1.67,0-.04.23-4.05,3.09-7.42,3.04-3.6,8.89-5.07,13.91-3.48,5.45,1.72,7.85,6.42,8.64,7.96,4.71,9.24-1.03,18.73-1.27,19.13-1.04,1.69-3.44,4.89-7.81,7.33-2.5,1.4-6.64,2.59-29.42,1.76-6.95-.25-10.44-.38-13.03-.64-1.15-.11-2.11-.22-2.95-.32-2.32-.26-3.85-.44-6.25-.32-2.73.14-4.22.54-5.52.89-1.19.32-2.31.63-4.17.69-.33.01-.71.02-1.13.02Zm-.21-18.43c-.51,0-1.05.03-1.64.08-1.9.19-4.51.44-6.82,2.3-2.94,2.37-5.11,7.19-3.5,10.86,2.17,4.91,10.01,5.16,13.28,5.05,1.84-.07,2.96-.37,4.14-.69,1.31-.36,2.8-.76,5.55-.9,2.41-.12,3.95.05,6.27.32.85.1,1.8.21,2.95.32,2.59.25,6.07.38,13.01.63,21.21.78,26.27-.29,28.47-1.28.34-.15.57-.28.9-.46,6.55-3.7,10.83-13.12,8.09-21.05-.16-.46-3.19-8.85-10.04-9.63-3.13-.36-6.52.93-8.72,3.13-3.78,3.76-2.62,8.74-5.43,9.71-1.52.52-2.57-.68-5.6-2.22-1.37-.7-11.59-5.76-18.6-2.3-1.31.65-3.44,2.05-5.35,4.03-2.01,2.09-2.8,3.79-5.02,4.36-1.43.37-2.87.13-3.13.08-.94-.17-1.01-.37-3.4-1.22-2.02-.72-2.77-.86-3.11-.92-.68-.12-1.44-.19-2.3-.19Z"/>
</svg>