<?xml version="1.0" encoding="UTF-8"?>
<svg id="Layer_1" data-name="Layer 1" class="cloud draw-clouds fill-clouds" xmlns="http://www.w3.org/2000/svg" viewBox="0 0 178.6 83.74">
  <defs>
  <clipPath id="myClip5">
      <circle cx="100" cy="100" r="40" />
      <circle cx="60" cy="60" r="40" />
    </clipPath>
    <style>
      .cls-1 {
        fill: #f2f7f8;
      }

      .cls-2 {
        fill: #fff;
      }

      .cls-3 {
        fill: #ceeaf0;
      }
    </style>
  </defs>
  <path class="cls-1" d="m96.13,12.4c4.75-3.22,9.58-6.14,14.58-8.71-3.77-1.05-6.84-.88-7.17-.85-.71.05-10.1.9-15.43,8.6-2.42,3.5-3.34,7.44-4.17,9.8,4.27-2.22,8.18-6.13,12.19-8.84Z"/>
  <path class="cls-1" d="m173.37,40.15c-2.15-1.83-4.42-2.26-5.38-2.42-5.47-.96-8.29,2.77-10.51,1.12-1.66-1.24-.31-3.46-1.98-7.49-.18-.44-2.39-5.58-7.49-7.64-4.22-1.71-8.15-.39-9.74.14-6,2.02-7.82,6.38-9.92,5.4-1.85-.87-.91-4.46-2.81-10.33-.39-1.21-1.98-5.84-5.35-9.52-2.05-2.24-4.39-3.73-6.66-4.71-8.93,4.33-17.33,9.81-25.21,16.11-8.71,6.96-18.98,2.96-29.05,3.99-6.95.72-12.84,4.58-18.27,9.04-2.5,2.05-3.79,4.18-5.78,6.7-.5.63-1.36,1.9-2.24,2.15-2.01.56-5.17-1.1-7.65-2.47.57,1.88,1.65,2.85,1.38,3.19-.3.38-1.75-.74-3.76-1.52-2.43-.93-4.49-.88-5.77-.88-.98,0-5.01.12-8.96,2.68-.08.05-.21.14-.37.24C7.06,44.46,0,49.44.04,57.31c.02,4.57,2.43,8.91,5.52,11.25,3.55,2.7,5.62.96,12.68,3.99,4.2,1.8,3.71,2.51,7.57,4.06,5.67,2.28,10.62,2.29,13.51,2.27,3.63-.03,7.82-.06,12.74-2.04,5.46-2.2,8.67-5.52,12.82-4.16,1.09.36,1.14.72,2.87,1.28.9.29,3.96,1.21,7.98.88,6.68-.55,8.23-3.9,12.76-4.37,5.24-.54,7.95,4.14,12.94,6.35,17.6,7.78,42.58,3.45,49.82-9.26,1.4-2.47,1.65-4.4,3.98-6.29,5.63-4.58,12.01.28,17.93-4.36.57-.44,4-3.23,4.31-7.7.36-5.16-3.71-8.74-4.09-9.06Z"/>
  <path class="cls-2" d="m173.5,61.29c-5.24,2.77-15.18-1.5-17.44.51-.63.56-1.13,1.21-1.13,1.21-.96,1.34-.98,2.58-3.65,5.77-4.4,5.25-9.49,7.69-9.69,7.38-.3-.45,5.5-3.47,10.41-10.63,2.11-3.07,9.25-13.47,5.95-24.59-1.99-6.72-6.76-10.2-7.65-10.82-8.33-5.87-17.59-1.93-18.23-1.64-3.73,1.67-6.13,4.24-7.38,5.8-.76-2.17-2.75-6.9-7.35-10.67-4.6-3.77-9.26-4.46-11.79-4.8-8.69-1.17-15.46,2.62-17.41,3.74-5.55,3.21-6.42,6.12-9.27,7.96-.71.46-1.61.88-2.72,1.19-1.11.31-2.07.39-2.7.4-2.51-4.96-7.5-6.99-11.16-5.36-3.38,1.5-4.42,5.61-4.56,6.19-.98-.66-2.74-1.66-5.08-1.86-3.42-.28-5.95,1.34-7.44,2.3-6.05,3.88-8.24,10.96-8.87,13.27-1.43-.91-3.45-1.82-5.43-1.19-2.45.77-2.83,3.22-4.67,3.39-2.32.21-3.3-3.54-6.21-5.49-2.11-1.41-5.69-2.19-12.19.6,1.81-1.15,5.14-2.88,9.32-2.93,1.31-.01,3.38-.13,5.77.88.62.26,1.11.53,1.46.74-.18-.73-.39-1.89-.24-3.31.06-.59.28-2.48,1.52-4.2,1.81-2.52,5.25-3.9,7.79-2.91,1.82.71,2.74,2.47,3.15,2.17.4-.3-.75-1.86-.63-4.01.18-3.08,2.86-5.1,3.24-5.38.69-.5,2.96-2.16,5.57-1.27,1.65.56,2.59,1.86,2.96,2.42-.06-1.19-.07-4.47,1.92-7.7.38-.62,3.12-4.92,8.27-5.52,3.9-.45,6.77,1.51,7.56,2.07,2.37,1.68,3.58,3.86,4.1,4.95.27-.62,1.02-2.1,2.58-2.95,2.67-1.45,5.32.07,5.62.25,2,1.2,2.72,3.23,2.91,3.8.39-2.5,1.62-8.16,5.97-13.13,4.86-5.54,12.66-9.17,20.43-7.48,7.02,1.53,11.23,6.7,13.09,8.98,3.46,4.24,4.97,8.4,5.35,9.52.98,2.94,1.34,5.55,1.47,7.41,1.9-1.57,5.54-4.09,10.64-4.93,2.15-.35,6-.93,10.4.95,4.64,1.99,7.15,5.55,8.24,7.14,2.45,3.58,3.35,7.12,3.72,9.14,1.38-.61,4.37-1.68,7.97-.9,4.23.92,9.23,4.39,10.37,10.33.98,5.09-1.04,11.21-4.85,13.23Z"/>
  <path class="cls-3" d="m169.59,43.48c-4.51-2.77-9.56-1.01-11.13-.47-4.86,1.69-4.64,4.12-8.39,4.7-4.34.67-5.31-2.48-9.74-1.87-4.07.56-4.34,3.41-8.65,4.07-2.99.46-3.44-.83-8.81-1.86-2.23-.42-7.13-1.31-12.76-.18-2.25.45-5.64,1.43-9.47,3.8-1.27,2.19-4.11,7.22-9.84,9.5-4.36,1.74-9.41,2.21-13.99,1.89-3.23-.23-16.9-2.11-18.34-7.75-4.33,3.71-8.82,7.52-14.3,8.81-2.72.65-8.55,1.94-14.48-1.3-2.83-1.55-4.73-3.62-5.85-5.06-1.57.81-4.45,1.96-7.99,1.56-8.45-.96-12.57-9.89-12.88-10.59-.92,1.39-2.64,4.39-2.93,8.57-.08,1.09-.5,8.61,5.1,13.77,5.39,4.97,11.95,3.69,12.76,3.52,1.98,1.88,10.19,9.23,22.58,9.14,13.98-.1,22.72-9.6,24.27-11.33.69.76,5.39,5.78,12.71,5.36,6.99-.41,11.07-5.48,11.74-6.34,2.69,1.77,6.82,4.2,12.16,6.24,5.47,2.09,25.72,9.82,44.17-.96,3.3-1.93,8.37-5.52,13.28-12.13,6.92,2.56,13.74-.29,15.93-5.3,1.64-3.75.58-8.46-1.16-11.5-.47-.82-1.66-2.85-3.99-4.28Z"/>
  <path class="cls-2" d="m151.6,63.85c-.23.58-.9,2.1-4.04,5.1-2.39,2.28-5.28,5.04-9.79,6.95-2.31.97-12.22,5.15-17.63.43-2.57-2.25-2.82-5.37-5.39-5.7-2.31-.3-3.51,2.09-5.83,1.5-1.89-.48-3.12-2.58-3.57-4.11-1.21-4.16,1.96-9.12,5.6-10.76.66-.29,1.95-.93,3.64-.69,2.06.29,3.38,1.64,3.83,2.15.03-.54.22-3.66,2.62-5.72,3.29-2.82,7.49-.89,7.68-.8,1.38.67,2.29,1.65,2.78,2.3.44-1,2.09-4.51,5.79-6.09,4.58-1.96,10.1-.04,12.97,4.22,2.24,3.33,2.67,7.78,1.32,11.24Z"/>
  <path class="cls-3" d="m151.26,64.7c.09.09-2.26,3.79-5.67,6.84-8.33,7.45-21.73,10.5-26.24,5.43-1.34-1.51-1.5-3.29-3.54-4.22-2.45-1.12-4.33.51-6.9-.62-1.69-.74-2.72-2.27-3.35-3.48.76.51,2.14,1.26,3.97,1.38,3.78.25,6.37-2.42,6.84-2.92,2.12,1.89,6.23,4.98,12.11,6.15,2.81.56,10.51,1.59,17.05-2.97,3.36-2.35,5.64-5.68,5.72-5.59Z"/>
</svg>