<?xml version="1.0" encoding="UTF-8"?>
<svg id="Layer_1" data-name="Layer 1" class="cloud draw-clouds fill-clouds" xmlns="http://www.w3.org/2000/svg" viewBox="0 0 223.27 111.08">
  <defs>
  <style>
      .cls-1 {
        fill: #e9f4f6;
      }

      .cls-2 {
        fill: #fff;
      }

      .cls-3 {
        fill: #ceeaf0;
      }
    </style>
  </defs>
  <g>
    <path class="cls-1" d="m216.76,85.68c-4.24,5.56-12.66,7.56-20.58,4.47-.92,1.7-2.39,4.12-4.61,6.66-12.81,14.6-36.44,16.91-53.96,11.63-4.42-1.33-10.93-3.89-17.97-9.15-2.52,1.3-5.81,2.69-9.79,3.66-6.15,1.5-11.47,1.39-15.12,1.01-8.4,3.26-15.89,4.92-21.85,5.8-6.43.95-34.99,4.5-58.21-11.21-7.88-5.33-10.08-9.45-10.84-12.93-1.6-7.31,2.29-15.74,5.99-18.14,1.27-.83,4.16-2.61,7.27-6.01.49-.54.95-1.18,1.45-2.07,4.55-8.21-4.14-14.7-1.97-24.86,2.55-11.97,19.32-24.1,31.96-21.82,6.35,1.15,8.26,5.33,14.2,4.49,7.53-1.07,8.16-8.33,15.1-9.49,8.22-1.37,18.54,6.94,20.04,15.14.79,4.33-.79,9.14-.16,9.28.48.1.78-2.69,2.92-4.7,2.79-2.63,7.86-3.12,11.86-1.33,3.88,1.74,7.03,5.77,6.9,9.75-.14,4.65-4.72,7.87-4.32,8.27.41.41,4.39-3.9,9.95-6.74,7.91-4.04,16.44-1.64,17.65-1.28,9.69,2.87,15.4,11.52,16.04,12.51,2.07,3.22,2.28,5.02,4.41,5.83,3.58,1.37,6.1-2.53,14.01-4.36,3.32-.77,7.08-1.64,11.16-.06,5.82,2.25,8.31,7.75,8.51,8.22,1.87,4.32.3,6.67,2.2,8.01,2.53,1.78,5.79-2.17,12.05-1.09,1.23.21,4.08.63,6.14,2.64,4.08,3.97,3.58,12.64-.41,17.87Z"/>
    <path class="cls-3" d="m186.26,72.95c-4.02-2.15-10.97-5.86-19.27-7.08-13.89-2.03-17.54,5-28.92,2.39-9.76-2.23-10.36-8.14-19.62-11.79-6.84-2.69-17.63-3.85-34.45,4.04-2.06-2.13-6-5.58-11.88-7.33-10.11-3-23.06-.1-28.26,7.78-5.38,8.15.86,16.6-5.61,22.72-4.06,3.83-10.13,3.94-11.29,3.96-8.49.15-13.3-5.74-15.65-3.96-1.97,1.5-.97,7.5,1.62,12.05,9.58,16.88,42.48,16.63,59.95,14.01,9.61-1.44,17.19-3.99,21.85-5.8,3.65.38,8.97.48,15.12-1.01,3.98-.97,7.27-2.36,9.79-3.66,7.04,5.26,13.55,7.82,17.97,9.15,17.52,5.27,41.15,2.96,53.96-11.63,2.23-2.54,3.7-4.96,4.61-6.66,2.53.96,6.4,1.93,10.87,1.16,2.12-.37,8.62-1.48,9.71-5.63.58-2.19-.39-5.08-2.24-5.94-2.09-.97-4.06,1.26-6.93,2.18-6.2,1.97-11.61-3.77-21.33-8.97Z"/>
    <path class="cls-2" d="m220.51,68.64c-.55-.76-2.82-3.7-6.96-4.98-3.7-1.15-6.83-.33-9.03.24-2.42.63-4.27,1.57-5.48,2.28.28-2.08.81-8.14-3.01-13.17-6.58-8.64-19.65-5.82-20.93-5.52-6.11,1.42-10.13,4.99-11.96,6.87-.48-1.85-3.7-13.42-15.09-19.04-2.74-1.35-10.06-4.38-18.74-2.16-3.86.99-6.74,2.71-8.51,3.96.14-6.08-3.48-11.43-8.73-13.2-6.15-2.08-11.47,1.78-11.96,2.14.04-.64.59-14.53-10.78-22.12-9.61-6.4-19.99-3.15-20.98-2.82-7.32,2.44-11.25,7.72-12.5,9.57-1.46-.57-17.03-6.38-31.16,3.04-11.04,7.36-16.23,20.71-14.42,32.33.81,5.24,2.91,9.23,4.44,11.65-1.83.83-4.56,2.31-7.23,4.89-1.35,1.3-4.48,4.38-6.15,9.42-.67,2.03-2.79,8.36.37,14.83,3.11,6.38,9.65,9.38,10.02,8.96.17-.19-.88-1.11-2.05-2.87-.64-.97-3.6-5.66-3.29-11.8.38-7.48,5.37-12.26,6.75-13.49,4.06-3.62,8.49-4.63,10.45-4.95-.57-2.87-1.95-11.7,2.8-21.03.61-1.21,6.71-12.74,19.96-16.32,5.75-1.55,10.76-1.05,13.33-.62,8.3,1.4,11.23,5.88,21.18,8.44,4.04,1.04,7.45,1.32,9.59,1.4,1.26,2.31,3.35,5.57,6.65,8.84,2.13,2.11,3.66,3.65,6,4.5,6.04,2.19,11.46-1.02,12.24-1.5,2.35-1.58,9.14-5.7,18.61-5.38,4.28.14,12.18,1.3,19.11,7.38,6,5.27,8.22,11.55,8.99,14.24,1.1-1.15,7.67-7.81,17.27-7.25,1.93.11,7.05.49,11.46,4.49,5.74,5.22,5.77,12.51,5.75,13.75.94-1.18,3.26-3.74,7.06-4.76,4.64-1.25,11.06-.02,14.15,4.94,2.19,3.51,1.82,9.06-1.03,11.77-.24.23-.5.43-.78.62.3-.11.6-.27.91-.45,1.32-.76,5.12-2.97,6.18-7.39,1.14-4.76-1.73-8.69-2.5-9.74Z"/>
  </g>
  <path class="cls-1" d="m62.77,93.65c7.87-.26,15.18-5.65,18.86-13.79,6.59,5.17,11.26,5.56,14.26,5.01,7.53-1.37,8.11-9.27,17.95-12.55,7.43-2.48,14.8-.93,14.8-.93,5.53,1.16,8.89,3.77,12.64,2.18,2.39-1.01,3.73-3.23,4.46-4.81-1.55-.2-2.67-.63-3.37-.96-3.21-1.5-5.51-4.33-6.99-6.7-2.85-2.7-8.05-6.82-15.62-9.05-12.48-3.67-23,.27-26.29,1.67-3.83,1.63-6.72,3.6-8.63,5.08.03-1.29,0-3.1-.34-5.23-.21-1.31-1.25-7.89-5.24-12.6-5.36-6.33-15.4-8.51-23.62-5.91-9.26,2.92-13.33,10.9-14.67,13.52-5.26,10.32-4.18,23.14,2.16,32.47,2.34,3.44,8.8,12.96,19.63,12.6Z"/>
  <path class="cls-2" d="m50.72,89.61s.07-.07.1-.1c-5.94-5.42-10.41-14.07-8.66-19.48.25-.78,1.06-3.27,3.23-4.3,2.27-1.08,3.82.48,6.32.49,6.3.02,7.55-9.82,15.31-11.42,4.1-.85,7.58,1.12,8.45,1.61,5.35,3.02,6.66,8.77,6.89,9.83,2.14-2.01,5.79-4.93,11.02-6.98,8.59-3.37,16.39-2.33,20.27-1.54,7.11,1.45,12.99,5.12,15.5,6.85,5.56,3.84,8.78,7.92,12.72,7.01,1.82-.42,3.09-1.74,3.9-2.82-1.55-.2-2.67-.63-3.37-.96-3.21-1.5-5.51-4.33-6.99-6.7-4.99-7.78-16.39-10.6-17.65-10.91-8.73-2.16-16.35.55-20.84,2.15-5.37,1.91-9.41,4.5-12.06,6.46.03-1.29,0-3.1-.34-5.23-.21-1.31-1.25-7.89-5.24-12.6-5.17-6.11-15.1-8.6-23.62-5.91-9.26,2.92-13.33,10.9-14.67,13.52-8,15.68,1.74,31.8,2.16,32.47,1.25,2.03,3.66,5.33,7.57,8.56Z"/>
  <path class="cls-2" d="m152.52,88.81c-.04-.55-.1-2.38,1.14-3.98,1.53-1.97,3.91-2.13,4.75-2.18,2.7-.17,4.65,1.2,5.22,1.64-.02-.72-.05-3.82,2.28-6.46,2.11-2.39,4.78-2.86,5.76-3.02.67-.11,5.69-.84,8.42,2.44,1.56,1.87,1.77,4.33,1.82,4.87.08.95.01,1.76-.08,2.32.19-.29,1.77-2.63,4.69-2.85,2.81-.22,4.65,1.68,5.09,2.14,2.63,2.72,1.95,6.51,1.87,6.92,1.96-.6,4.07.01,5.34,1.53,1.43,1.71,1.52,4.27.16,6.18-.39.34-.97.83-1.73,1.36-.41.29-4.73,3.29-10.16,3.97-8.05,1.01-10.37-4.07-18.73-2.46-2.19.42-1.59.69-4.15,1.23-1.62.34-11.26,2.39-17.76-3.03-1.37-1.14-3.97-3.36-3.71-6.42.19-2.2,1.84-4.55,4.41-5.26,2.8-.77,5.07.86,5.36,1.07Z"/>
  <path class="cls-1" d="m168.58,93.36c-4.37,1.05-7.23,3.67-8.58,5.12-.21-.38-2.27-4.02-6.14-4.31-2.49-.19-5.72,1-6.1,3.01-.39,2.05,2.35,4.09,2.94,4.53,4.18,3.11,7.92,1.37,18.19,1.87,6.13.3,7.62,1.06,12.62.54,7.22-.76,8.95-2.85,9.58-4.06.11-.22.8-1.58.49-3.25-.57-3.14-4.13-4.39-4.51-4.52-.48-.16-3.92-1.32-6.1.78-1.06,1.02-1.33,2.33-1.41,2.97-.65-.72-1.76-1.76-3.39-2.46-3.02-1.31-5.83-.63-7.58-.21Z"/>
</svg>