<?xml version="1.0" encoding="UTF-8"?>
<?xml-stylesheet type="text/css" href="styles.css"?>
<svg id="Layer_1" data-name="Layer 1" class="cloud draw-clouds fill-clouds" xmlns="http://www.w3.org/2000/svg" viewBox="0 0 216.08 69.17">
  <defs>
  <clipPath id="myClip">
      <circle cx="100" cy="100" r="40" />
      <circle cx="60" cy="60" r="40" />
    </clipPath>
    <style>
      .fill1 {
        fill: #e9f4f6;
      }

      .fill2
       {
        fill: #fff;
      }

      .fill3 {
        fill: #ceeaf0;
      }
    </style>
  </defs>
  <path class="fill1" d="m46.71,45.14c-3.61,4.07-17.23-9.18-33.54-6.95-1.93.26-11.15,1.53-12.89,7.26-.97,3.2.7,7.23,3.21,9.36,1.73,1.47,4.38,1.49,9.38,1.89,2.05.17,4.01.19,5.15,1.61.73.91.32,1.6.97,2.61,1.34,2.09,4.41,2.98,7.45,3.31,5.73.62,15.17,1.64,23.02-2.63,1.23-.67,3.6-2.11,6.48-1.67,1.73.27,1.72.92,4.35,1.8,3.03,1.01,5.7,1,7.55,1.02,6.35.05,7.89-1.96,12.2-1.99,4.98-.04,7.43,3.05,12.11,4.72,16.49,5.88,40.28,4.63,47.44-2.89.96-1.01,1.15-1.8,2.36-2.72,3.85-2.93,7.92-2.24,18.67-2.66,7.17-.28,8.94-.79,10.55-2.08,3.16-2.54,3.71-6.52,3.78-7.14.88-7.15-5.66-12.98-8.19-15.23-4.85-4.32-10.26-6.61-19.61-8.95-8.18-2.05-29.73-7.23-50.26-2.68-5.58,1.24-9.94,2.26-14.47,5.64-4.67,3.49-4.99,6.11-9.03,7.51-5.72,1.98-7.58-2.49-14.16-.81-4.83,1.24-9.75,5.14-11.83,9.99-.55,1.29-.33,1.3-.68,1.7Z"/>
  <path class="fill2
  " d="m211.21,51.22c-11.87,9.17-57.22,3.51-56.97.91.14-1.5,15.17.71,17.97-5.84.92-2.15.44-5.06-.59-7.12-1.38-2.76-3.76-3.97-5.5-4.86-.84-.43-4.47-2.19-9.67-1.89-5.54.32-7.3,2.64-9.59,1.37-2.23-1.24-.96-3.89-3.4-7.14-3.86-5.13-11.47-5.06-12.01-5.05-4.15.1-7.56,1.92-9.17,2.78-.88.47-2.19,1.53-4.67,3.01-1.93,1.16-2.9,1.74-3.44,1.88-3.07.84-5.43-1.74-9.19-3.55,0,0-5.15-2.49-11.49-2.11-8.15.49-13.77,5.84-15.39,7.38-3.47,3.3-5.35,6.79-6.33,8.96-.82-1.1-2.54-3.07-5.36-4.27-4.9-2.08-9.49-.27-10.68.18-5.94,2.26-8.11,7.54-8.76,7.13-.71-.45,1.28-7.06,6.47-12.21,5.5-5.46,11.97-6.68,13.53-6.94,5.93-.98,10.68.44,12.86,1.25.56-1.55,4.76-12.56,15.16-15.75,4.65-1.43,8.86-.78,9.48-.68,5.21.85,8.71,3.51,10.19,4.78.31-.29,2.87-2.58,6.5-2,3.25.51,4.94,2.94,5.22,3.35,1.1-2.06,3.04-5.09,6.24-7.93,2.19-1.94,7.28-6.31,15.03-6.83,8.43-.56,14.5,3.82,16.4,5.33,8.75,6.98,9.35,17.4,9.42,19.06.84-.98,2.86-3.06,6.16-4.13,1.8-.58,5.42-1.32,9.25.36,4.74,2.07,6.6,6.72,6.75,7.12,1.39,3.65.01,5.54,1.53,6.71,2.03,1.57,4.88-1.59,10.02-.47.91.2,3.04.69,4.99,2.41.35.31,4.04,3.66,3.46,8.2-.45,3.49-3.31,5.7-4.45,6.58Z"/>
  <path class="fill3" d="m169.2,45.46c-6.87-2.34-6.21-4.12-11.65-5.7-13.9-4.04-23.28,8.66-36,4.4-4.03-1.35-6.78-3.86-8.27-5.44-1.16,1.48-9.66,11.96-23.2,11.82-6.38-.06-11.25-2.46-13.82-4-4.18,6.04-11.53,8.71-17.98,6.73-7.72-2.38-10.19-10.22-10.38-10.87-.18.34-.35.69-.5,1.04-.55,1.29-.33,1.3-.68,1.7-3.61,4.07-17.23-9.18-33.54-6.95-1.93.26-11.15,1.53-12.89,7.26-.97,3.2.7,7.23,3.21,9.36,1.73,1.47,4.38,1.49,9.38,1.89,2.05.17,4.01.19,5.15,1.61.73.91.32,1.6.97,2.61,1.34,2.09,4.41,2.98,7.45,3.31,5.73.62,15.17,1.64,23.02-2.63,1.23-.67,3.6-2.11,6.48-1.67,1.73.27,1.72.92,4.35,1.8,3.03,1.01,5.7,1,7.55,1.02,6.35.05,7.89-1.96,12.2-1.99,4.98-.04,7.43,3.05,12.11,4.72,16.49,5.88,40.28,4.63,47.44-2.89.96-1.01,1.15-1.8,2.36-2.72,5.78-4.4,13.75-3.37,18.67-2.66,9.77,1.4,24.53,3.42,38.67.43,0,0,13.37-2.73,15.97-9.1,1.34-3.28.65-6.04.65-6.04-.26-1.05-.68-1.85-.99-2.36-.22.51-3.07,6.69-9.83,7.86-5.17.89-9.07-1.76-9.85-2.31-6.44,1.73-15.98,3.19-26.02-.22Z"/>
  <path class="fill2
  " d="m151.4,43.64c4.48-1.29,8.88.14,10.15.55,5.3,1.72,8.53,5.45,9.8,4.42.52-.42.17-1.19.32-2.79,0,0,.33-3.57,3.04-6.5,2.95-3.2,8.29-4.12,12.55-2.56,4.8,1.75,6.78,6.09,7.4,7.45,3.81,8.35-1.55,16.55-1.89,17.05-.6.89-2.85,4.03-7.27,6.25-1.98.99-5.04,2.14-26.43.42-6.23-.5-9.34-.75-11.66-1.08-3.87-.55-5.3-.95-8.24-.93-4.67.03-5.23,1.07-8.75,1.05-1.27,0-9.82-.08-11.77-5.08-1.28-3.28.72-7.56,3.58-9.67,2.11-1.56,4.4-1.71,6.23-1.81,5.67-.3,6.71,2.42,10.44,2.08,5.5-.5,5.6-6.87,12.48-8.85Z"/>
  <path class="fill2
  " d="m59.49,49.52c-.37,2.23-4.41,3.04-4.79,3.12-2.88.55-4.37-.54-8.45-1.54-7.25-1.78-8.89-1.61-10.13-1.11-1.62.65-1.55,1.28-3.45,1.91-.79.26-3.7,1.17-6.81-.19-.91-.4-3.69-1.62-4.32-4.36-.41-1.8.37-3.32.56-3.68.86-1.65,2.28-2.35,3.25-2.84.59-.3,1.93-.94,3.76-.9,1.28.03,2.28.37,2.89.63.24-.86.72-2.07,1.69-3.2,2.88-3.36,8.96-4.72,13.14-1.73,3.57,2.55,3.89,6.94,3.93,7.62,1.28.08,3.81.44,6.1,2.28.95.76,2.9,2.32,2.62,4Z"/>
  <path class="fill1" d="m57.43,45.95c-3.96,1.66-8.66,1.5-11.86-1.46-1.2.49-3.68,1.31-6.81.94-2.41-.28-4.23-1.13-5.28-1.74-.35.59-1.08,1.63-2.39,2.44-.38.24-2.69,1.62-5.6.88-2.11-.54-3.35-1.9-3.79-2.43-.19.6-.42,1.61-.17,2.77.6,2.72,3.38,3.95,4.32,4.36,3.11,1.36,6.01.45,6.81.19,1.9-.63,1.83-1.26,3.45-1.91,1.25-.5,2.88-.67,10.13,1.11,4.07,1,5.57,2.09,8.45,1.54.38-.07,4.42-.88,4.79-3.12.24-1.46-1.2-2.87-2.06-3.57Z"/>
  <path class="fill3" d="m195.22,45.68c-.38.95-4.28,10.31-14.55,12.89-8.83,2.21-15.78-2.25-16.9-3-5.23,5.49-17.24,7.81-23.22,2.96-.76.46-6.31,3.73-12.69,1.43-4.39-1.58-6.65-4.9-7.36-6.03-.56.39-1.59,1.24-2.16,2.66-1.02,2.5.13,4.89.34,5.31,2.42,4.82,10.27,5.05,11.26,5.07.22,0,.39,0,.5,0,3.52.03,4.08-1.01,8.75-1.05,2.94-.02,4.37.38,8.24.93,2.31.33,5.43.58,11.66,1.08,21.38,1.72,24.45.58,26.43-.42,4.29-2.16,6.72-5.45,7.27-6.25.65-.95,4.04-6.08,3.12-12.66-.17-1.23-.45-2.23-.68-2.92Z"/>
</svg>