<?xml version="1.0" encoding="UTF-8"?>
<svg id="Layer_1" data-name="Layer 1" class="cloud draw-clouds fill-clouds" xmlns="http://www.w3.org/2000/svg" viewBox="0 0 231.33 102.77">
  <defs>
  <clipPath id="myClip7">
      <circle cx="100" cy="100" r="40" />
      <circle cx="60" cy="60" r="40" />
    </clipPath>
    <style>
      .cls-1 {
        fill: #e9f4f6;
      }

      .cls-2 {
        fill: #fff;
      }

      .cls-3 {
        fill: #ceeaf0;
      }
    </style>
  </defs>
  <path class="cls-2" d="m56.66,30.44c7.36-3.72,14.17-3.6,17.28-3.52,6.68.19,12.15,2.08,15.81,3.73,1.46-4.14,4.05-10.13,8.5-15.79,2.5-3.17,12.95-16,29.02-14.78,17.11,1.3,27.44,17.51,29.19,20.35,8.49,13.79,14.47,37.26,7.79,52.02-14.08,31.07-81.37,16.96-88.04,15.56-3.16-.66-11.43-3.02-21.53-.11-8.38,2.42-9.67,5.98-16.45,8.44-13.27,4.81-32.74-.01-37.2-14.32-2.46-7.89-.33-18.69,4.35-24.36,3.51-4.25,7.65-5.12,10.98-5.76,2.37-.45,4.18-.32,6.54-.15,3.11.23,7.59.91,12.99,2.96,2.37-5.46,8.71-18.19,20.78-24.28Z"/>
  <path class="cls-1" d="m159.69,99.39c-2.64.12-5.33-.17-5.33-.17-1.63-.2-3.19-.52-4.86-.86-4.81-1.33-9.58-2.65-14.35-3.97h-.08c-7.21,2.65-13.04,2.82-17.04,2.5-7.35-.6-9.03-2.96-15.75-2.48-5.73.41-5.02,2.16-14.7,3.99-7.13,1.34-11.42,1.13-14.01.84-1.26-.14-2.38-.35-2.52-.37-4.27-.79-8.84-2.76-8.84-2.76-4.29-1.84-11.65.64-26.17,1.92-7.89.69-11.87.5-15.51-2.88-.84-.78-3.19-3.01-4.41-7.09-2.13-7.09.92-13.66,1.37-14.6,2.9-6.04,7.97-7.56,12.33-8.78,9.47-2.65,17.92.39,23.04,3,.55-2.57,3.79-16.69,14.42-23.24,7.75-4.78,15.25-2.95,17.85-2.27,5.02,1.31,8.83,3.99,11.15,5.93,5.46-4.83,13.64-10.42,24.26-12.54,6.18-1.23,14.57-2.9,23.87,2.5,2.62,1.52,8.32,4.94,12.87,13.08,3.15,5.63,4.45,11.19,5.02,14.54,1.11-3.2,4.4-11.48,11.73-16.46,1.42-.96,9.74-6.35,19.82-2.06,7.29,3.1,11.47,9.54,12.38,11,2.88,4.61,4.22,9.21,4.87,12.02,4.54-3.71,10.06-3.84,14.33-.38,2.51,2.03,6.51,6.86,5.82,11.11-1.23,7.64-17.15,10.63-27.08,9.54-2.21-.24-7.32-1.05-14.32-.19-1.39.17-3.37.47-5.72,1.02-11.12,2.61-17.54,7.83-24.45,8.14Z"/>
  <path class="cls-3" d="m149.56,101.39c-6-1.06-10.87-3.2-14.29-5.04h-.08c-12.26,3.86-27.86,6.97-45.98,6.33-8.38-.29-16.11-1.34-23.08-2.79-10.16.21-17.56.59-22.76.93-6.34.41-12.8.98-18.53-4.46-1-.95-1.76-1.87-2.25-2.52,3.35.05,8.59-.31,14.52-2.84,6.58-2.8,8.85-6.06,14.53-8.45,3.82-1.61,9.74-3.07,18.02-1.2,1.97,1.89,5.76,4.94,10.84,5.52,11.32,1.3,18.59-10.86,19.32-12.12,2.27.84,5.7,1.66,9.54.59,4.73-1.32,6.2-4.44,11.97-7.75,2.6-1.49,6.34-3.64,11.24-3.91,7.97-.44,14.38,4.33,17.21,6.43,3.55,2.64,3.25,3.36,7.42,6.61,5.08,3.97,10.38,6.69,13.23,7.56,12.46,3.8,25.42-13.25,27.09-15.51,1.08,6.38,3.18,8.47,4.29,9.26.71.5,1.93,1.11,9.75.04,4.73-.65,5.4-1.05,7.09-.55,2.89.86,6.82,3.62,6.78,6.28-.08,4.81-13.13,9.05-21.16,8.51-.92-.06-3.77-.32-7.7-.26-1.94.03-4.15.14-6.6.39,0,0-3.02.31-5.73.82-6.3,1.17-10.13,4.96-15.69,7.24-7.21,2.96-13.58,1.83-19.02.87Z"/>
</svg>